<svg width="26" height="30" viewBox="0 0 26 30" fill="none" xmlns="http://www.w3.org/2000/svg">
<g id="discord-brands">
<path id="Shape" fill-rule="evenodd" clip-rule="evenodd" d="M26 3.487V29.5C25.4046 28.9865 24.9342 28.5817 24.5466 28.2481C23.7965 27.6027 23.3565 27.224 22.9207 26.8406C22.3023 26.2966 21.6924 25.7429 20.2172 24.4038C19.892 24.1086 19.5249 23.7753 19.1063 23.3955L19.8937 26.078H3.04571C1.36686 26.078 0 24.744 0 23.091V3.487C0 1.834 1.36686 0.5 3.04571 0.5H22.9543C24.6331 0.5 26 1.834 26 3.487ZM8.79543 14.275C8.79543 13.3905 9.464 12.6655 10.3109 12.6655C11.1577 12.6655 11.8411 13.3905 11.8263 14.275C11.8263 15.1595 11.1577 15.8845 10.3109 15.8845C9.47886 15.8845 8.79543 15.1595 8.79543 14.275ZM15.7337 15.8845C16.5806 15.8845 17.2491 15.1595 17.2491 14.275C17.2491 13.3905 16.5806 12.6655 15.7337 12.6655C14.8869 12.6655 14.2183 13.3905 14.2183 14.275C14.2183 15.1595 14.9017 15.8845 15.7337 15.8845ZM19.6263 8.7795C19.6263 8.7795 21.7657 12.564 21.7657 17.233C21.7657 17.233 20.5029 19.3355 17.2194 19.437C17.2194 19.437 16.6846 18.8135 16.2389 18.2625C18.1851 17.726 18.928 16.537 18.928 16.537C18.3189 16.9285 17.7394 17.204 17.2194 17.3925C14.0184 18.7046 10.4563 18.2556 7.94857 16.885C7.94126 16.8802 7.91458 16.8653 7.87523 16.8432C7.75212 16.7742 7.50505 16.6356 7.33943 16.5225C7.33943 16.5225 8.05257 17.6825 9.93943 18.2335C9.49371 18.7845 8.944 19.437 8.944 19.437C5.66057 19.3355 4.41257 17.233 4.41257 17.233C4.41257 12.564 6.552 8.7795 6.552 8.7795C8.69143 7.2135 10.7269 7.257 10.7269 7.257L10.8754 7.431C8.20114 8.185 6.968 9.3305 6.968 9.3305C6.968 9.3305 7.29486 9.1565 7.84457 8.91C11.268 7.44238 15.4136 7.44272 18.9429 9.3305C18.9429 9.3305 17.7691 8.243 15.2434 7.489L15.4514 7.257C15.4514 7.257 17.4869 7.2135 19.6263 8.7795Z" fill="white"/>
</g>
</svg>
