<svg width="25" height="26" viewBox="0 0 25 26" fill="none" xmlns="http://www.w3.org/2000/svg">
<path id="Vector" d="M19.7917 0.5H5.20833C2.33229 0.5 0 2.83229 0 5.70833V20.2917C0 23.1677 2.33229 25.5 5.20833 25.5H19.7917C22.6687 25.5 25 23.1677 25 20.2917V5.70833C25 2.83229 22.6687 0.5 19.7917 0.5ZM8.33333 20.2917H5.20833V8.83333H8.33333V20.2917ZM6.77083 7.5125C5.76458 7.5125 4.94792 6.68958 4.94792 5.675C4.94792 4.66042 5.76458 3.8375 6.77083 3.8375C7.77708 3.8375 8.59375 4.66042 8.59375 5.675C8.59375 6.68958 7.77812 7.5125 6.77083 7.5125ZM20.8333 20.2917H17.7083V14.4542C17.7083 10.9458 13.5417 11.2115 13.5417 14.4542V20.2917H10.4167V8.83333H13.5417V10.6719C14.9958 7.97813 20.8333 7.77917 20.8333 13.251V20.2917Z" fill="white"/>
</svg>
