<svg width="31" height="30" viewBox="0 0 31 30" fill="none" xmlns="http://www.w3.org/2000/svg">
<g id="Icon">
<g id="Group">
<path id="Vector" fill-rule="evenodd" clip-rule="evenodd" d="M9.73438 24.9159L13.2448 25.8473V24.6293L13.5313 24.3428H15.5372V25.7756V26.7785H13.388L10.7373 25.6323L9.73438 24.9159Z" fill="#CDBDB2"/>
<path id="Vector_2" fill-rule="evenodd" clip-rule="evenodd" d="M21.1953 24.9159L17.7566 25.8473V24.6293L17.4701 24.3428H15.4642V25.7756V26.7785H17.6134L20.2639 25.6323L21.1953 24.9159Z" fill="#CDBDB2"/>
<path id="Vector_3" fill-rule="evenodd" clip-rule="evenodd" d="M13.5366 22.265L13.25 24.629L13.6081 24.3425H17.3334L17.7632 24.629L17.4766 22.265L16.9035 21.9067L14.038 21.9784L13.5366 22.265Z" fill="#393939"/>
<path id="Vector_4" fill-rule="evenodd" clip-rule="evenodd" d="M11.5938 6.28809L13.3131 10.2999L14.1012 21.9771H16.895L17.7547 10.2999L19.3308 6.28809H11.5938Z" fill="#F89C35"/>
<path id="Vector_5" fill-rule="evenodd" clip-rule="evenodd" d="M4.07621 15.1018L2.07031 20.9045L7.08505 20.618H10.3088V18.1107L10.1655 12.9526L9.44908 13.5257L4.07621 15.1018Z" fill="#F89D35"/>
<path id="Vector_6" fill-rule="evenodd" clip-rule="evenodd" d="M7.875 15.7466L13.7494 15.8899L13.1047 18.8987L10.3107 18.1823L7.875 15.7466Z" fill="#D87C30"/>
<path id="Vector_7" fill-rule="evenodd" clip-rule="evenodd" d="M7.875 15.8169L10.3107 18.1093V20.4018L7.875 15.8169Z" fill="#EA8D3A"/>
<path id="Vector_8" fill-rule="evenodd" clip-rule="evenodd" d="M10.3047 18.1802L13.1703 18.8966L14.1016 21.9771L13.4568 22.3352L10.3047 20.4726V18.1802Z" fill="#F89D35"/>
<path id="Vector_9" fill-rule="evenodd" clip-rule="evenodd" d="M10.3075 20.4731L9.73438 24.9148L13.5313 22.2642L10.3075 20.4731Z" fill="#EB8F35"/>
<path id="Vector_10" fill-rule="evenodd" clip-rule="evenodd" d="M13.7398 15.8872L14.0981 21.9766L13.0234 18.8603L13.7398 15.8872Z" fill="#EA8E3A"/>
<path id="Vector_11" fill-rule="evenodd" clip-rule="evenodd" d="M7.00781 20.5448L10.3032 20.4731L9.7301 24.9148L7.00781 20.5448Z" fill="#D87C30"/>
<path id="Vector_12" fill-rule="evenodd" clip-rule="evenodd" d="M3.64637 26.8506L9.73564 24.9163L7.01335 20.5464L2.07031 20.9045L3.64637 26.8506Z" fill="#EB8F35"/>
<path id="Vector_13" fill-rule="evenodd" clip-rule="evenodd" d="M13.3196 10.3018L10.2392 12.8808L7.875 15.7463L13.7494 15.9613L13.3196 10.3018Z" fill="#E8821E"/>
<path id="Vector_14" fill-rule="evenodd" clip-rule="evenodd" d="M9.73438 24.9147L13.5313 22.2642L13.2448 24.5566V25.8461L10.6657 25.3446L9.73438 24.9147Z" fill="#DFCEC3"/>
<path id="Vector_15" fill-rule="evenodd" clip-rule="evenodd" d="M21.1953 24.9147L17.4701 22.2642L17.7566 24.5566V25.8461L20.3356 25.3446L21.1953 24.9147Z" fill="#DFCEC3"/>
<path id="Vector_16" fill-rule="evenodd" clip-rule="evenodd" d="M12.1728 17.1772L12.9609 18.825L10.1669 18.1086L12.1728 17.1772Z" fill="#393939"/>
<path id="Vector_17" fill-rule="evenodd" clip-rule="evenodd" d="M3.57812 2.92236L13.3211 10.3011L11.6734 6.28934L3.57812 2.92236Z" fill="#E88F35"/>
<path id="Vector_18" fill-rule="evenodd" clip-rule="evenodd" d="M3.57075 2.92236L2.28125 6.86251L2.99764 11.1609L2.49617 11.4474L3.21256 12.0922L2.63945 12.5936L3.42748 13.31L2.926 13.7399L4.07223 15.1727L9.44516 13.525C12.0719 11.4235 13.3614 10.349 13.3137 10.3012C13.2659 10.2534 10.0183 7.79382 3.57075 2.92236Z" fill="#8E5A30"/>
<g id="Group_2">
<path id="Vector_19" fill-rule="evenodd" clip-rule="evenodd" d="M26.8535 15.1013L28.8594 20.904L23.8446 20.6175H20.6209V18.1102L20.7642 12.9521L21.4806 13.5253L26.8535 15.1013Z" fill="#F89D35"/>
<path id="Vector_20" fill-rule="evenodd" clip-rule="evenodd" d="M23.0547 15.7461L17.1803 15.8894L17.825 18.8982L20.619 18.1818L23.0547 15.7461Z" fill="#D87C30"/>
<path id="Vector_21" fill-rule="evenodd" clip-rule="evenodd" d="M23.0547 15.8164L20.619 18.1089V20.4013L23.0547 15.8164Z" fill="#EA8D3A"/>
<path id="Vector_22" fill-rule="evenodd" clip-rule="evenodd" d="M20.625 18.1797L17.7594 18.8961L16.8281 21.9766L17.4729 22.3348L20.625 20.4721V18.1797Z" fill="#F89D35"/>
<path id="Vector_23" fill-rule="evenodd" clip-rule="evenodd" d="M20.6222 20.4727L21.1953 24.9143L17.4701 22.3353L20.6222 20.4727Z" fill="#EB8F35"/>
<path id="Vector_24" fill-rule="evenodd" clip-rule="evenodd" d="M17.182 15.8887L16.8238 21.9781L17.8984 18.8617L17.182 15.8887Z" fill="#EA8E3A"/>
<path id="Vector_25" fill-rule="evenodd" clip-rule="evenodd" d="M23.9141 20.5444L20.6187 20.4727L21.1918 24.9143L23.9141 20.5444Z" fill="#D87C30"/>
<path id="Vector_26" fill-rule="evenodd" clip-rule="evenodd" d="M27.2833 26.8501L21.194 24.9158L23.9163 20.5459L28.8594 20.904L27.2833 26.8501Z" fill="#EB8F35"/>
<path id="Vector_27" fill-rule="evenodd" clip-rule="evenodd" d="M17.6101 10.3018L20.6905 12.8808L23.0547 15.7463L17.1803 15.9613L17.6101 10.3018Z" fill="#E8821E"/>
<path id="Vector_28" fill-rule="evenodd" clip-rule="evenodd" d="M18.7568 17.1772L17.9688 18.825L20.7627 18.1086L18.7568 17.1772Z" fill="#393939"/>
<path id="Vector_29" fill-rule="evenodd" clip-rule="evenodd" d="M27.3516 2.92188L17.6086 10.3006L19.2563 6.28885L27.3516 2.92188Z" fill="#E88F35"/>
<path id="Vector_30" fill-rule="evenodd" clip-rule="evenodd" d="M27.3589 2.92188L28.6484 6.86203L27.932 11.1604L28.4335 11.4469L27.7171 12.0917L28.2902 12.5932L27.5022 13.3096L28.0037 13.7394L26.8575 15.1722L21.4845 13.5245C18.8578 11.4231 17.5683 10.3485 17.616 10.3007C17.6638 10.253 20.9114 7.79334 27.3589 2.92188Z" fill="#8E5A30"/>
</g>
</g>
</g>
</svg>
