<svg width="26" height="22" viewBox="0 0 26 22" fill="none" xmlns="http://www.w3.org/2000/svg">
<g id="twitter-brands">
<path id="Path" d="M23.3275 5.73357C23.344 5.96325 23.344 6.19298 23.344 6.42265C23.344 13.4281 17.9823 21.5 8.18277 21.5C5.16371 21.5 2.35915 20.6304 0 19.1211C0.428951 19.1703 0.841347 19.1867 1.2868 19.1867C3.77789 19.1867 6.07107 18.35 7.9023 16.9227C5.55965 16.8734 3.59644 15.3477 2.92003 13.2477C3.25001 13.2968 3.57994 13.3297 3.92642 13.3297C4.40483 13.3297 4.8833 13.264 5.3287 13.1492C2.88708 12.657 1.0558 10.5242 1.0558 7.94843V7.88283C1.76516 8.27658 2.59011 8.52267 3.46441 8.55544C2.02913 7.60386 1.08881 5.97966 1.08881 4.14215C1.08881 3.15779 1.35272 2.25545 1.81468 1.46794C4.43779 4.68357 8.38072 6.78353 12.802 7.01326C12.7195 6.61951 12.67 6.20939 12.67 5.79923C12.67 2.87888 15.0457 0.5 17.9987 0.5C19.533 0.5 20.9188 1.13984 21.8921 2.17344C23.0964 1.94376 24.2512 1.50077 25.2741 0.893753C24.8781 2.12425 24.0368 3.15784 22.9315 3.81405C24.0038 3.69926 25.0432 3.40388 26 2.99377C25.2742 4.04373 24.3668 4.97884 23.3275 5.73357Z" fill="white"/>
</g>
</svg>
